<svg xmlns="http://www.w3.org/2000/svg" viewBox="0 0 800 800" width="800" height="800">
  <defs>
    <linearGradient id="bg6" x1="0" y1="0" x2="0" y2="1">
      <stop offset="0%" stop-color="#E6F5E8"/>
      <stop offset="100%" stop-color="#D1EAD5"/>
    </linearGradient>
    <linearGradient id="bag6" x1="0" y1="0" x2="0" y2="1">
      <stop offset="0%" stop-color="#5B9268"/>
      <stop offset="100%" stop-color="#3E7D4F"/>
    </linearGradient>
  </defs>
  <rect width="800" height="800" fill="url(#bg6)"/>
  <ellipse cx="400" cy="720" rx="220" ry="25" fill="#000" opacity="0.08"/>
  <!-- Asa -->
  <path d="M 320 220 Q 320 160 400 160 Q 480 160 480 220" stroke="#2E5F3A" stroke-width="14" fill="none" stroke-linecap="round"/>
  <!-- Cuerpo -->
  <path d="M 270 220 L 530 220 Q 545 220 545 235 L 545 680 Q 545 705 520 705 L 280 705 Q 255 705 255 680 L 255 235 Q 255 220 270 220 Z" fill="url(#bag6)"/>
  <!-- Bolsillo frontal -->
  <path d="M 310 420 L 490 420 Q 500 420 500 430 L 500 640 Q 500 650 490 650 L 310 650 Q 300 650 300 640 L 300 430 Q 300 420 310 420 Z" fill="#4A8055"/>
  <!-- Decoración: árbol esquemático -->
  <g opacity="0.7">
    <rect x="395" y="290" width="10" height="40" fill="#6B4F2E"/>
    <circle cx="400" cy="280" r="25" fill="#7FB069"/>
  </g>
  <!-- Cremallera -->
  <rect x="300" y="415" width="200" height="6" rx="3" fill="#2E5F3A"/>
  <circle cx="400" cy="418" r="8" fill="#FFD93D"/>
  <!-- Estrella bordada -->
  <text x="400" y="555" font-size="50" text-anchor="middle" fill="#FFF4E6" opacity="0.85">★</text>
  <rect x="285" y="200" width="50" height="35" rx="8" fill="#2E5F3A"/>
  <rect x="465" y="200" width="50" height="35" rx="8" fill="#2E5F3A"/>
</svg>
